<?xml version="1.0" standalone="no"?>
<!DOCTYPE svg PUBLIC "-//W3C//DTD SVG 20010904//EN"
 "http://www.w3.org/TR/2001/REC-SVG-20010904/DTD/svg10.dtd">
<svg version="1.0" xmlns="http://www.w3.org/2000/svg"
 width="117.000000pt" height="117.000000pt" viewBox="0 0 117.000000 117.000000"
 preserveAspectRatio="xMidYMid meet">
<metadata>
Created by potrace 1.11, written by Peter Selinger 2001-2013
</metadata>
<g transform="translate(0.000000,117.000000) scale(0.100000,-0.100000)"
fill="#000000" stroke="none">
<path d="M748 968 c-19 -7 -44 -37 -84 -101 -32 -51 -61 -96 -65 -100 -4 -5
-22 6 -42 25 -19 18 -58 53 -87 78 -29 25 -58 50 -64 56 -34 32 -67 46 -98 40
-30 -5 -43 -22 -130 -158 -126 -200 -137 -219 -141 -248 -9 -56 3 -70 182
-229 122 -108 156 -132 182 -127 13 3 28 5 32 5 7 1 123 174 130 195 2 5 9 6
19 0 14 -8 131 -109 166 -144 43 -42 76 -60 105 -55 38 7 44 14 113 126 32 52
62 96 66 97 5 2 8 10 8 17 0 8 6 20 14 27 29 30 76 126 76 157 0 43 -22 77
-79 125 -25 21 -84 72 -130 115 -91 82 -121 106 -121 95 0 -3 -6 -2 -12 3 -8
7 -23 7 -40 1z"/>
</g>
</svg>
